<svg xmlns="http://www.w3.org/2000/svg" version="1.1" xmlns:xlink="http://www.w3.org/1999/xlink" xmlns:svgjs="http://svgjs.dev/svgjs" width="1000" height="750" viewBox="0 0 1000 750"><rect width="1000" height="750" fill="#915eff"></rect><g transform="matrix(0.834,0,0,0.834,82.49454545454546,115.4193570850203)"><svg viewBox="0 0 396 247" data-background-color="#915eff" preserveAspectRatio="xMidYMid meet" height="623" width="1000" xmlns="http://www.w3.org/2000/svg" xmlns:xlink="http://www.w3.org/1999/xlink"><g id="tight-bounds" transform="matrix(1,0,0,1,0.2400000000000091,-0.09999999999999432)"><svg viewBox="0 0 395.52 247.2" height="247.2" width="395.52"><g><svg></svg></g><g><svg viewBox="0 0 395.52 247.2" height="247.2" width="395.52"><g transform="matrix(1,0,0,1,75.54432,64.92963157452763)"><svg viewBox="0 0 244.43135999999998 117.34073685094472" height="117.34073685094472" width="244.43135999999998"><g><svg viewBox="0 0 244.43135999999998 117.34073685094472" height="117.34073685094472" width="244.43135999999998"><g><svg viewBox="0 0 244.43135999999998 117.34073685094472" height="117.34073685094472" width="244.43135999999998"><g><svg viewBox="0 0 244.43135999999998 117.34073685094472" height="117.34073685094472" width="244.43135999999998"><g id="textblocktransform"><svg viewBox="0 0 244.43135999999998 117.34073685094472" height="117.34073685094472" width="244.43135999999998" id="textblock"><g><svg viewBox="0 0 244.43135999999998 117.34073685094472" height="117.34073685094472" width="244.43135999999998"><g transform="matrix(1,0,0,1,0,0)"><svg width="244.43135999999998" viewBox="4.599999904632568 -34.29999923706055 71.45000457763672 34.29999923706055" height="117.34073685094472" data-palette-color="#ffffff"><path d="M16.5-34.3Q20.8-34.3 24-32.43 27.2-30.55 28.95-27.08 30.7-23.6 30.7-18.9L30.7-18.9 30.7-15.4Q30.7-10.7 28.95-7.23 27.2-3.75 24-1.88 20.8 0 16.5 0L16.5 0 4.6 0 4.6-34.3 16.5-34.3ZM16.5-29.85L9.5-29.85 9.5-4.45 16.5-4.45Q20.95-4.45 23.38-7.23 25.8-10 25.8-15.4L25.8-15.4 25.8-18.9Q25.8-24.2 23.43-27.03 21.05-29.85 16.5-29.85L16.5-29.85ZM68.4-34.3L76.05-34.3 76.05 0 71.15 0 71.15-28.55 70.85-28.55 59 0 54.85 0 43.05-28.55 42.8-28.55 42.8 0 38.35 0 38.35-34.3 46.05-34.3 57.1-7.3 57.3-7.3 68.4-34.3Z" opacity="1" transform="matrix(1,0,0,1,0,0)" fill="#ffffff" class="undefined-text-0" data-fill-palette-color="primary" id="text-0"></path></svg></g></svg></g></svg></g></svg></g></svg></g></svg></g></svg></g><g><path d="M245.816 0c68.262 0 123.6 55.338 123.6 123.6 0 68.262-55.338 123.6-123.6 123.6-41.169 0-77.636-20.128-100.1-51.079h6.617c21.645 27.861 55.47 45.788 93.483 45.788 65.34 0 118.309-52.969 118.309-118.309 0-65.34-52.969-118.309-118.309-118.309-38.013 0-71.838 17.927-93.483 45.788l-6.617 0c22.463-30.951 58.931-51.079 100.1-51.079z" fill="#ffffff" stroke="transparent" data-fill-palette-color="tertiary"></path></g></svg></g><defs></defs></svg><rect width="395.52" height="247.2" fill="none" stroke="none" visibility="hidden"></rect></g></svg></g></svg>