<?xml version="1.0" standalone="no"?>
<!DOCTYPE svg PUBLIC "-//W3C//DTD SVG 20010904//EN"
 "http://www.w3.org/TR/2001/REC-SVG-20010904/DTD/svg10.dtd">
<svg version="1.0" xmlns="http://www.w3.org/2000/svg"
 width="706.000000pt" height="706.000000pt" viewBox="0 0 706.000000 706.000000"
 preserveAspectRatio="xMidYMid meet">

<g transform="translate(0.000000,706.000000) scale(0.100000,-0.100000)"
fill="#000000" stroke="none">
<path d="M0 3530 l0 -3530 3530 0 3530 0 0 3530 0 3530 -3530 0 -3530 0 0
-3530z m4235 2419 c368 -43 717 -170 1041 -381 138 -90 238 -173 382 -317 278
-278 477 -610 590 -986 78 -259 97 -396 97 -695 0 -299 -19 -436 -97 -695
-114 -379 -310 -707 -591 -988 -197 -196 -358 -315 -591 -438 -262 -137 -492
-210 -805 -255 -127 -18 -444 -21 -581 -5 -642 77 -1220 404 -1623 919 l-48
62 69 0 70 0 71 -84 c263 -310 621 -551 1012 -680 252 -84 456 -117 729 -117
594 -1 1168 232 1589 644 288 282 495 630 605 1020 67 235 81 341 81 617 0
270 -13 367 -76 598 -48 175 -71 237 -159 417 -175 358 -432 652 -769 877
-392 262 -809 390 -1271 389 -513 0 -978 -156 -1388 -464 -98 -73 -302 -268
-383 -365 l-44 -53 -67 3 -68 3 87 105 c533 644 1318 963 2138 869z m1294
-1155 c21 -27 21 -28 21 -1244 0 -1216 0 -1217 -21 -1244 l-20 -26 -2464 0
-2464 0 -20 26 c-21 27 -21 28 -21 1244 0 1216 0 1217 21 1244 l20 26 2464 0
2464 0 20 -26z"/>
<path d="M585 4768 c-3 -7 -4 -560 -3 -1228 l3 -1215 2449 -3 c1802 -1 2452 1
2462 9 12 10 14 215 14 1214 0 662 -3 1210 -6 1219 -6 15 -232 16 -2460 16
-1955 0 -2456 -3 -2459 -12z m1095 -82 c101 -23 228 -76 307 -127 72 -47 188
-167 241 -249 120 -186 162 -379 162 -740 0 -434 -65 -651 -259 -862 -76 -83
-137 -128 -241 -179 -179 -87 -276 -99 -817 -99 l-413 0 0 1141 0 1141 473 -5
c399 -3 484 -7 547 -21z m1783 -113 c182 -453 670 -1639 676 -1646 7 -7 154
347 657 1571 l87 212 253 0 254 0 0 -1140 0 -1140 -165 0 -165 0 0 947 c0 552
-4 943 -9 938 -5 -6 -184 -432 -397 -947 l-389 -938 -140 0 -140 0 -390 945
c-214 519 -393 945 -397 945 -5 0 -8 -425 -8 -945 l0 -945 -150 0 -150 0 0
1140 0 1140 259 0 259 0 55 -137z"/>
<path d="M990 3570 l0 -843 288 6 c305 6 351 12 448 58 188 88 291 255 324
519 13 108 13 398 0 515 -30 261 -131 431 -305 515 -116 55 -156 61 -467 67
l-288 6 0 -843z"/>
</g>
</svg>
